<?xml version="1.0" encoding="UTF-8" standalone="no"?>
<!-- Created with Inkscape (http://www.inkscape.org/) -->

<svg
   xmlns:dc="http://purl.org/dc/elements/1.1/"
   xmlns:cc="http://creativecommons.org/ns#"
   xmlns:rdf="http://www.w3.org/1999/02/22-rdf-syntax-ns#"
   xmlns:svg="http://www.w3.org/2000/svg"
   xmlns="http://www.w3.org/2000/svg"
   xmlns:sodipodi="http://sodipodi.sourceforge.net/DTD/sodipodi-0.dtd"
   xmlns:inkscape="http://www.inkscape.org/namespaces/inkscape"
   width="210mm"
   height="297mm"
   viewBox="0 0 744.09448819 1052.3622047"
   id="svg2"
   version="1.1"
   inkscape:version="0.91 r13725"
   sodipodi:docname="Proof logo Black.svg">
  <defs
     id="defs4" />
  <sodipodi:namedview
     id="base"
     pagecolor="#ffffff"
     bordercolor="#666666"
     borderopacity="1.0"
     inkscape:pageopacity="0.0"
     inkscape:pageshadow="2"
     inkscape:zoom="0.98994949"
     inkscape:cx="147.16617"
     inkscape:cy="503.26346"
     inkscape:document-units="px"
     inkscape:current-layer="layer1"
     showgrid="false"
     inkscape:window-width="1280"
     inkscape:window-height="962"
     inkscape:window-x="1358"
     inkscape:window-y="-8"
     inkscape:window-maximized="1" />
  <metadata
     id="metadata7">
    <rdf:RDF>
      <cc:Work
         rdf:about="">
        <dc:format>image/svg+xml</dc:format>
        <dc:type
           rdf:resource="http://purl.org/dc/dcmitype/StillImage" />
        <dc:title />
      </cc:Work>
    </rdf:RDF>
  </metadata>
  <g
     inkscape:label="Layer 1"
     inkscape:groupmode="layer"
     id="layer1">
    <g
       id="g5826"
       transform="matrix(0.27228061,0,0,0.27228061,-2421.7046,-16.666765)"
       inkscape:export-filename="C:\Users\Shawnee\Desktop\Proof Logo Final\g5826(8cm).png"
       inkscape:export-xdpi="300"
       inkscape:export-ydpi="300">
      <circle
         inkscape:export-ydpi="300"
         inkscape:export-xdpi="300"
         r="353.71024"
         cy="2089.8623"
         cx="10121.875"
         id="path7019-2-9-2-2-5-9-7"
         style="fill:#ffffff;fill-rule:evenodd;stroke:#000000;stroke-width:8.34714413;stroke-linecap:butt;stroke-linejoin:miter;stroke-miterlimit:4;stroke-dasharray:none;stroke-opacity:1" />
      <path
         inkscape:export-ydpi="300"
         inkscape:export-xdpi="300"
         sodipodi:nodetypes="cccccsssscsccccssscccccccccsssscssscccccssccccscscccscscccsccsscscccscscccscscccsccsscscscsssscssscsss"
         inkscape:connector-curvature="0"
         id="path5181-4-2-7-8"
         d="m 9931.3425,2238.5272 0,-29.1807 29.84,0 29.841,0 c 0,0 2.447,0.1685 3.621,1.6877 3.015,3.0141 3.069,5.7416 3.069,12.4747 0,8.8252 -1.579,12.8761 -5.887,15.1041 -4.673,2.4166 -52.474,2.3948 -52.474,-0.024 0,-1.3829 4.152,-1.7118 25.279,-2.0026 24.99,-0.3441 24.958,0.3807 27.119,-2.2901 2.25,-1.6047 2.273,-6.2933 2.343,-11.0291 0.06,-3.795 -0.09,-7.2023 -1.494,-8.9919 -0.691,-1.7263 -3.062,-1.496 -3.062,-1.496 l -27.381,0 -27.382,0 0,27.4642 c 0,23.6497 -0.237,27.4642 -1.716,27.4642 -1.481,0 -1.716,-4.0052 -1.716,-29.1807 z m 78.9595,0 0,-29.1807 29.841,0 29.841,0 c 0,0 5.395,0.22 5.786,5.7864 0,0 0.904,1.6042 0.899,8.7159 0,5.6013 -0.607,8.8019 -2.136,11.3087 -2.081,3.4112 -2.08,3.5604 0,6.1346 1.779,2.1972 2.136,4.6258 2.136,14.527 0,9.8049 -0.301,11.8888 -1.716,11.8888 -1.404,0 -1.717,-1.9536 -1.717,-10.7169 0,-9.1093 -0.356,-11.1692 -2.372,-13.7321 l -2.371,-3.0152 -25.093,0 c -21.124,0 -25.092,-0.2616 -25.092,-1.6545 0,-1.3828 4.152,-1.7117 25.279,-2.0026 24.99,-0.3441 25.303,-0.3788 27.464,-3.0496 2.234,-1.7971 1.837,-13.7768 0.488,-18.3281 -0.195,-1.9531 -3.054,-2.4293 -3.054,-2.4293 l -27.382,0 -27.381,0 0,27.4641 c 0,23.6497 -0.238,27.4642 -1.716,27.4642 -1.481,0 -1.717,-4.0052 -1.717,-29.1807 z m 81.776,26.4619 c -1.504,-1.1659 -2.425,-2.0354 -2.816,-5.0627 l 0,-20.7694 c 0,-21.9587 0.805,-26.035 5.658,-28.6322 1.324,-0.7086 12.529,-1.1783 28.112,-1.1783 l 25.91,0 c 0,0 4.322,0.22 5.201,2.0755 1.465,0.7812 1.489,4.6145 1.489,4.6145 l 0,21.3151 c 0,23.2263 -0.697,26.4538 -6.261,28.9891 -2.03,0.925 -10.985,1.7682 -27.665,1.3672 l -24.371,-0.5859 c 0,0 -3.304,-0.3751 -5.258,-2.1329 z m 57.937,-3.9879 c 1.962,-2.4257 2.185,-4.7181 2.185,-22.4464 0,-18.2427 0.406,-20.8532 -0.712,-23.7366 -0.293,-1.9531 -4.031,-2.0386 -4.031,-2.0386 l -24.393,0 c -32.102,0 -29.678,-1.8876 -30.164,23.5001 -0.388,20.3895 0.339,24.4821 4.738,26.6686 1.6,0.7951 11.039,1.1523 26.342,0.9968 23.548,-0.2393 23.876,-0.2765 26.034,-2.9439 z m 20.509,3.8518 c 0,0 -1.82,-1.0596 -2.303,-4.9266 l 0,-20.7694 c 0,-21.9587 0.806,-26.035 5.658,-28.6322 1.324,-0.7086 12.53,-1.1783 28.113,-1.1783 l 25.91,0 c 0,0 4.313,-0.2458 5.417,2.102 1.795,0.9668 1.273,4.588 1.273,4.588 l 0,21.3151 c 0,23.2263 -0.698,26.4538 -6.262,28.9891 -2.03,0.925 -10.984,1.7604 -27.665,1.3672 l -24.859,-0.5859 c 0,0 -3.211,-0.1974 -5.283,-2.269 z m 58.451,-3.8518 c 1.96,-2.4257 2.184,-4.7181 2.184,-22.4464 0,-18.2427 -0.04,-19.4219 -0.576,-22.3457 1.243,-3.4526 -4.166,-3.4295 -4.166,-3.4295 l -24.394,0 c -32.1,0 -29.678,-1.8876 -30.162,23.5001 -0.389,20.3895 0.339,24.4821 4.738,26.6686 1.6,0.7951 11.038,1.1523 26.341,0.9968 23.547,-0.2393 23.877,-0.2765 26.035,-2.9439 z m 18.206,-17.9534 c 0,-26.1056 0.65,-29.8427 5.657,-32.523 1.343,-0.7183 13.401,-1.1783 30.886,-1.1783 24.734,0 28.683,0.2364 28.683,1.7165 0,1.4789 -3.864,1.7166 -27.91,1.7166 -34.485,0 -33.312,-0.49 -33.312,13.9153 l 0,9.5437 30.612,0.3047 c 26.16,0.2605 30.611,0.5516 30.611,2.0026 0,1.459 -4.347,1.6978 -30.897,1.6978 l -30.898,0 0,13.7321 c 0,11.4434 -0.286,13.7321 -1.716,13.7321 -1.473,0 -1.716,-3.5029 -1.716,-24.6601 z"
         style="fill:#000000" />
      <path
         inkscape:export-ydpi="300"
         inkscape:export-xdpi="300"
         sodipodi:nodetypes="ssscccccsssscccscccssssccsscsssscccccscsccssscscscssssscccccssscccccscccsccccsssscsccscscssscscssccsssccsssssssss"
         inkscape:connector-curvature="0"
         id="path5181-7-1-1-6-3"
         d="m 10203.703,2344.7115 c 0,-0.8557 2.204,-0.9938 15.855,-0.9938 18.347,0 17.936,0.1299 17.936,-5.6793 l 0,-3.5969 -14.959,0 -14.958,0 c 0,0 -1.834,0 -3.042,-1.1079 -0.951,-0.8499 -0.832,-2.7656 -0.832,-2.7656 l 0,-10.6522 c 0,-9.027 0.151,-10.6521 0.994,-10.6521 0.839,0 0.994,1.5493 0.994,9.9686 0,14.0433 -1.089,13.2215 17.512,13.2215 l 14.26,0 0.182,-11.4209 c 0.163,-10.2664 0.298,-11.4436 1.341,-11.6438 1.078,-0.2071 1.16,0.9119 1.16,16.11 l 0,16.3328 c 0,0 -0.281,2.3511 -1.108,2.9035 -0.416,0.9668 -2.766,0.97 -2.766,0.97 l -16.284,0 c -14.033,0 -16.284,-0.1374 -16.284,-0.9939 z m -200.099,-28.4908 c 0,-15.6625 0.139,-18.2209 0.983,-18.2209 0.838,0 1.009,2.5033 1.159,17.0613 l 0.177,17.0615 14.175,0.1791 c 18.458,0.2331 17.298,0.926 17.298,-10.3319 0,-5.701 -0.259,-8.7254 -0.796,-9.2608 -0.567,-0.5674 -4.74,-0.795 -14.576,-0.795 -13.463,0 -13.781,-0.031 -13.781,-1.3618 0,-1.3378 0.248,-1.3581 14.227,-1.1595 18.218,0.2588 17.156,-0.4804 17.461,12.1447 l 0.217,8.928 c 0,0 0.02,1.7809 -1.125,2.8858 -1.277,1.0013 -2.851,1.0903 -2.851,1.0903 l -16.284,0 -16.284,0 z m 45.581,16.3533 c -0.96,-1.2377 -1.851,-2.4602 -1.851,-6.0834 0,-3.6232 0.216,-4.2932 1.937,-6.0142 0,0 1.888,-1.8879 5.794,-1.7902 l 10.107,-0.1465 c 11.972,-0.1735 13.966,0.1418 13.966,0.9938 0,0.8505 -1.917,0.9939 -13.282,0.9939 -13.217,0 -13.289,0.012 -14.906,1.6264 -1.198,1.1966 -1.627,2.3424 -1.627,4.3368 0,1.9944 0.118,3.3128 1.316,4.5094 1.798,1.3155 1.939,1.4538 16.212,1.4538 l 14.276,0 0,-9.4748 c 0,-6.4859 -0.251,-9.7257 -0.796,-10.27 -0.572,-0.5729 -5.109,-0.795 -16.234,-0.795 -15.122,0 -15.438,-0.028 -15.438,-1.3587 0,-1.3375 0.247,-1.3555 15.886,-1.1594 20.411,0.2557 18.822,-0.9194 19.111,14.1297 l 0.209,10.9159 -16.327,0 c 0,0 -15.575,0.5228 -16.551,-0.6003 -1.066,-0.5986 -1.801,-1.2672 -1.801,-1.2672 z m 41.218,-16.3533 c 0,-15.7547 0.135,-18.2209 0.994,-18.2209 0.843,0 0.994,1.6933 0.994,11.2639 l 0,11.2637 9.665,0 9.666,0 6.07,-5.63 c 3.34,-3.0965 6.592,-5.631 7.231,-5.632 0.637,0 1.16,0.1048 1.16,0.2352 0,0.1303 -2.759,2.9539 -6.13,6.2744 l -6.129,6.0373 6.281,6.3147 c 5.356,5.3843 6.046,6.3145 4.682,6.3145 -1.115,0 -3.346,-1.7075 -7.356,-5.6318 l -5.756,-5.632 -9.691,0 -9.693,0 0,5.632 c 0,4.5644 -0.188,5.6318 -0.994,5.6318 -0.859,0 -0.994,-2.4662 -0.994,-18.2208 z m 42.188,16.8366 c -0.759,-1.0358 -0.974,-1.3052 -1.108,-2.4893 l 0,-8.6275 c 0,-8.1649 0.09,-8.7273 1.599,-10.4866 0,0 1.46,-1.859 6.226,-1.7899 l 10.32,-0.069 c 14.659,-0.098 14.975,0.029 16.451,1.5049 1.261,1.2594 1.544,2.3676 1.746,6.7915 l 0.24,5.2864 -15.972,0 c -15.53,0 -15.972,-0.036 -15.972,-1.3251 0,-1.2849 0.442,-1.3252 14.577,-1.3252 l 14.575,0 0,-3.5116 c 0,-1.9315 -0.358,-3.8695 -0.795,-4.3068 -0.569,-0.5684 -4.807,-0.795 -14.87,-0.795 -17.155,0 -16.138,-0.6366 -16.138,10.1162 0,6.7302 -0.06,7.6616 0.247,8.8704 0.305,1.233 1.93,1.5654 3.004,1.5532 l 15.602,0 c 13.425,0 15.601,0.1386 15.601,0.9939 0,0.8565 -2.252,0.9938 -16.284,0.9938 l -16.284,0 c 0,0 -1.936,-0.1412 -2.765,-1.3842 z m 42.621,-9.1801 c 0,-10.2087 0.05,-10.6268 1.597,-12.4233 1.597,-1.8574 1.607,-1.8593 11.265,-2.0735 9.407,-0.2088 9.665,-0.1779 9.665,1.1595 0,1.3247 -0.332,1.3741 -9.237,1.3741 -11.862,0 -11.301,-0.6325 -11.301,12.7363 0,8.2616 -0.156,9.7912 -0.994,9.7912 -0.843,0 -0.995,-1.6155 -0.995,-10.5643 z"
         style="fill:#000000" />
      <path
         inkscape:connector-curvature="0"
         id="path6206-3-6-9-0-8-0-0-8"
         d="m 9871.1278,1975.8671 49.3504,153.3394 77.1541,2.674 -64.2388,-180.3139 z"
         style="opacity:1;fill:#000000;fill-opacity:1;fill-rule:evenodd;stroke:#ffffff;stroke-width:3.29999995;stroke-linecap:square;stroke-linejoin:miter;stroke-miterlimit:4;stroke-dasharray:none;stroke-opacity:1"
         sodipodi:nodetypes="ccccc" />
      <path
         inkscape:connector-curvature="0"
         id="path6208-87-4-0-7-0-27-4-0"
         d="m 9934.4519,1949.7876 18.9111,-30.8209 81.208,223.8465 -36.5544,-8.2458 z"
         style="opacity:1;fill:#000000;fill-opacity:1;fill-rule:evenodd;stroke:#ffffff;stroke-width:3.29999995;stroke-linecap:square;stroke-linejoin:miter;stroke-miterlimit:4;stroke-dasharray:none;stroke-opacity:1"
         sodipodi:nodetypes="ccccc" />
      <path
         inkscape:connector-curvature="0"
         id="path6210-290-1-2-6-8-8-0-5"
         d="m 9951.3418,1913.67 75.4722,-18.2462 70.798,250.8163 -62.86,-2.6654 z"
         style="opacity:1;fill:#000000;fill-opacity:1;fill-rule:evenodd;stroke:#ffffff;stroke-width:3.29999995;stroke-linecap:square;stroke-linejoin:miter;stroke-miterlimit:4;stroke-dasharray:none;stroke-opacity:1"
         sodipodi:nodetypes="ccccc" />
      <path
         inkscape:connector-curvature="0"
         id="path6212-2-2-3-6-8-2-0-4"
         d="m 10026.765,1894.6568 70.862,246.2273 -47.261,-282.5051 z"
         style="opacity:1;fill:#000000;fill-opacity:1;fill-rule:evenodd;stroke:#ffffff;stroke-width:3.29999995;stroke-linecap:square;stroke-linejoin:miter;stroke-miterlimit:4;stroke-dasharray:none;stroke-opacity:1" />
      <path
         inkscape:connector-curvature="0"
         id="path6222-7-7-8-2-1-96-6-6"
         d="m 9872.2945,1983.6585 -12.0967,49.9797 60.3525,95.347 z"
         style="opacity:1;fill:#000000;fill-opacity:1;fill-rule:evenodd;stroke:#ffffff;stroke-width:3.29999995;stroke-linecap:square;stroke-linejoin:miter;stroke-miterlimit:4;stroke-dasharray:none;stroke-opacity:1"
         sodipodi:nodetypes="cccc" />
      <path
         inkscape:connector-curvature="0"
         id="path6224-9-6-25-7-3-3-10-1"
         d="m 9865.6607,2041.9802 -50.7491,39.2629 20.1564,25.9065 81.1244,14.9724 z"
         style="opacity:1;fill:#000000;fill-opacity:1;fill-rule:evenodd;stroke:#ffffff;stroke-width:3.29999995;stroke-linecap:square;stroke-linejoin:miter;stroke-miterlimit:4;stroke-dasharray:none;stroke-opacity:1"
         sodipodi:nodetypes="ccccc" />
      <path
         inkscape:connector-curvature="0"
         id="path6276-9-2-8-8-6-2-5-9"
         d="m 10049.194,1854.5782 145.639,-0.4874 -51.544,303.9292 -42.939,0.091 z"
         style="opacity:1;fill:#000000;fill-opacity:1;fill-rule:evenodd;stroke:#ffffff;stroke-width:3.29999995;stroke-linecap:square;stroke-linejoin:miter;stroke-miterlimit:4;stroke-dasharray:none;stroke-opacity:1"
         sodipodi:nodetypes="ccccc" />
      <path
         inkscape:connector-curvature="0"
         id="path6206-3-6-9-0-8-0-7-6-1"
         d="m 10372.853,1975.9638 -49.351,153.3394 -77.154,2.674 64.239,-180.3139 z"
         style="opacity:1;fill:#000000;fill-opacity:1;fill-rule:evenodd;stroke:#ffffff;stroke-width:3.29999995;stroke-linecap:square;stroke-linejoin:miter;stroke-miterlimit:4;stroke-dasharray:none;stroke-opacity:1"
         sodipodi:nodetypes="ccccc" />
      <path
         inkscape:connector-curvature="0"
         id="path6208-87-4-0-7-0-27-1-1-3"
         d="m 10309.528,1949.8843 -18.911,-30.8209 -81.208,223.8465 36.555,-8.2458 z"
         style="opacity:1;fill:#000000;fill-opacity:1;fill-rule:evenodd;stroke:#ffffff;stroke-width:3.29999995;stroke-linecap:square;stroke-linejoin:miter;stroke-miterlimit:4;stroke-dasharray:none;stroke-opacity:1"
         sodipodi:nodetypes="ccccc" />
      <path
         inkscape:connector-curvature="0"
         id="path6210-290-1-2-6-8-8-8-5-4"
         d="m 10292.639,1913.7667 -75.473,-18.2462 -70.798,250.8163 62.86,-2.6654 z"
         style="opacity:1;fill:#000000;fill-opacity:1;fill-rule:evenodd;stroke:#ffffff;stroke-width:3.29999995;stroke-linecap:square;stroke-linejoin:miter;stroke-miterlimit:4;stroke-dasharray:none;stroke-opacity:1"
         sodipodi:nodetypes="ccccc" />
      <path
         inkscape:connector-curvature="0"
         id="path6212-2-2-3-6-8-2-8-6-4"
         d="m 10217.215,1894.7535 -70.861,246.2273 47.261,-282.5051 z"
         style="opacity:1;fill:#000000;fill-opacity:1;fill-rule:evenodd;stroke:#ffffff;stroke-width:3.29999995;stroke-linecap:square;stroke-linejoin:miter;stroke-miterlimit:4;stroke-dasharray:none;stroke-opacity:1" />
      <path
         inkscape:connector-curvature="0"
         id="path6222-7-7-8-2-1-96-0-7-9"
         d="m 10371.686,1983.7552 12.096,49.9797 -60.352,95.347 z"
         style="opacity:1;fill:#000000;fill-opacity:1;fill-rule:evenodd;stroke:#ffffff;stroke-width:3.29999995;stroke-linecap:square;stroke-linejoin:miter;stroke-miterlimit:4;stroke-dasharray:none;stroke-opacity:1"
         sodipodi:nodetypes="cccc" />
      <path
         inkscape:connector-curvature="0"
         id="path6224-9-6-25-7-3-3-1-4-1"
         d="m 10378.32,2042.0769 50.749,39.2629 -20.157,25.9065 -81.124,14.9724 z"
         style="opacity:1;fill:#000000;fill-opacity:1;fill-rule:evenodd;stroke:#ffffff;stroke-width:3.29999995;stroke-linecap:square;stroke-linejoin:miter;stroke-miterlimit:4;stroke-dasharray:none;stroke-opacity:1"
         sodipodi:nodetypes="ccccc" />
      <path
         inkscape:connector-curvature="0"
         id="path6276-9-2-8-8-6-2-3-6-8"
         d="m 10194.786,1854.6749 -145.639,-0.4874 51.544,303.9292 42.939,0.091 z"
         style="opacity:1;fill:#000000;fill-opacity:1;fill-rule:evenodd;stroke:#ffffff;stroke-width:3.29999995;stroke-linecap:square;stroke-linejoin:miter;stroke-miterlimit:4;stroke-dasharray:none;stroke-opacity:1"
         sodipodi:nodetypes="ccccc" />
    </g>
  </g>
</svg>
